<svg xmlns="http://www.w3.org/2000/svg" xmlns:xlink="http://www.w3.org/1999/xlink" width="128" zoomAndPan="magnify" viewBox="0 0 96 95.999999" height="128" preserveAspectRatio="xMidYMid meet" version="1.0"><defs><clipPath id="7a40dc8a8f"><path d="M 17.5625 24 L 22 24 L 22 26 L 17.5625 26 Z M 17.5625 24 " clip-rule="nonzero"/></clipPath><clipPath id="e2168bde9f"><path d="M 38 51 L 78.3125 51 L 78.3125 82.414062 L 38 82.414062 Z M 38 51 " clip-rule="nonzero"/></clipPath></defs><path fill="#000000" d="M 48 96 C 21.539062 96 0 74.460938 0 48 C 0 21.539062 21.539062 0 48 0 C 74.460938 0 96 21.539062 96 48 C 96 74.460938 74.460938 96 48 96 Z M 48 0.710938 C 21.917969 0.710938 0.710938 21.917969 0.710938 48 C 0.710938 74.082031 21.917969 95.289062 48 95.289062 C 74.082031 95.289062 95.289062 74.082031 95.289062 48 C 95.289062 21.917969 74.082031 0.710938 48 0.710938 Z M 48 0.710938 " fill-opacity="1" fill-rule="nonzero"/><path fill="#000000" d="M 68.746094 16.03125 C 66.082031 13.78125 61.996094 15.054688 61.0625 18.371094 C 59.253906 18.410156 57.648438 19.433594 56.859375 21.066406 C 56.671875 21.449219 56.832031 21.910156 57.214844 22.09375 C 57.597656 22.28125 58.058594 22.121094 58.242188 21.738281 C 58.789062 20.609375 59.910156 19.910156 61.164062 19.910156 C 61.574219 19.910156 61.804688 20.046875 62.136719 19.800781 C 62.308594 19.675781 62.421875 19.484375 62.445312 19.273438 C 62.785156 16.488281 66.316406 15.414062 68.152344 17.613281 C 68.445312 17.960938 69.042969 17.960938 69.335938 17.613281 C 71.289062 15.273438 75.078125 16.667969 75.078125 19.679688 C 75.078125 21.457031 73.691406 22.878906 71.9375 22.921875 L 65.769531 22.921875 C 65.34375 22.921875 65 23.265625 65 23.691406 C 65 24.117188 65.34375 24.460938 65.769531 24.460938 L 71.957031 24.460938 C 74.570312 24.398438 76.617188 22.296875 76.617188 19.679688 C 76.617188 15.605469 71.828125 13.421875 68.746094 16.03125 Z M 68.746094 16.03125 " fill-opacity="1" fill-rule="nonzero"/><path fill="#000000" d="M 48 18.984375 L 42.554688 18.984375 C 42.128906 18.984375 41.785156 19.328125 41.785156 19.75 C 41.785156 20.175781 42.128906 20.519531 42.554688 20.519531 L 48 20.519531 C 48.425781 20.519531 48.769531 20.175781 48.769531 19.75 C 48.769531 19.328125 48.425781 18.984375 48 18.984375 Z M 48 18.984375 " fill-opacity="1" fill-rule="nonzero"/><path fill="#000000" d="M 65.105469 28.820312 L 49.070312 28.820312 C 48.644531 28.820312 48.300781 29.164062 48.300781 29.589844 C 48.300781 30.011719 48.644531 30.359375 49.070312 30.359375 L 65.105469 30.359375 C 65.53125 30.359375 65.875 30.011719 65.875 29.589844 C 65.875 29.164062 65.53125 28.820312 65.105469 28.820312 Z M 65.105469 28.820312 " fill-opacity="1" fill-rule="nonzero"/><path fill="#000000" d="M 27.296875 30.359375 C 30.140625 30.359375 32.453125 28.046875 32.453125 25.203125 C 32.453125 22.359375 30.140625 20.050781 27.296875 20.050781 C 24.453125 20.050781 22.140625 22.359375 22.140625 25.203125 C 22.140625 28.046875 24.453125 30.359375 27.296875 30.359375 Z M 27.296875 21.585938 C 29.289062 21.585938 30.914062 23.210938 30.914062 25.203125 C 30.914062 27.195312 29.289062 28.820312 27.296875 28.820312 C 25.300781 28.820312 23.675781 27.195312 23.675781 25.203125 C 23.675781 23.210938 25.300781 21.585938 27.296875 21.585938 Z M 27.296875 21.585938 " fill-opacity="1" fill-rule="nonzero"/><path fill="#000000" d="M 26.527344 16.347656 L 26.527344 18.246094 C 26.527344 18.667969 26.871094 19.011719 27.296875 19.011719 C 27.71875 19.011719 28.066406 18.667969 28.066406 18.246094 L 28.066406 16.347656 C 28.066406 15.925781 27.71875 15.582031 27.296875 15.582031 C 26.871094 15.582031 26.527344 15.925781 26.527344 16.347656 Z M 26.527344 16.347656 " fill-opacity="1" fill-rule="nonzero"/><path fill="#000000" d="M 21.574219 18.398438 C 21.273438 18.097656 20.789062 18.097656 20.488281 18.398438 C 20.1875 18.699219 20.1875 19.1875 20.488281 19.484375 L 21.828125 20.828125 C 21.980469 20.976562 22.175781 21.050781 22.375 21.050781 C 23.054688 21.050781 23.402344 20.222656 22.917969 19.738281 Z M 21.574219 18.398438 " fill-opacity="1" fill-rule="nonzero"/><g clip-path="url(#7a40dc8a8f)"><path fill="#000000" d="M 18.4375 25.972656 L 20.335938 25.972656 C 20.757812 25.972656 21.105469 25.628906 21.105469 25.203125 C 21.105469 24.777344 20.757812 24.433594 20.335938 24.433594 L 18.4375 24.433594 C 18.011719 24.433594 17.667969 24.777344 17.667969 25.203125 C 17.667969 25.628906 18.011719 25.972656 18.4375 25.972656 Z M 18.4375 25.972656 " fill-opacity="1" fill-rule="nonzero"/></g><path fill="#000000" d="M 21.03125 32.234375 C 21.230469 32.234375 21.425781 32.15625 21.574219 32.007812 L 22.917969 30.667969 C 23.21875 30.367188 23.21875 29.878906 22.917969 29.578125 C 22.617188 29.28125 22.128906 29.28125 21.828125 29.578125 L 20.488281 30.921875 C 20.003906 31.40625 20.351562 32.234375 21.03125 32.234375 Z M 21.03125 32.234375 " fill-opacity="1" fill-rule="nonzero"/><path fill="#000000" d="M 33.488281 25.203125 C 33.488281 25.628906 33.832031 25.972656 34.257812 25.972656 L 36.152344 25.972656 C 36.578125 25.972656 36.921875 25.628906 36.921875 25.203125 C 36.921875 24.777344 36.578125 24.433594 36.152344 24.433594 L 34.257812 24.433594 C 33.832031 24.433594 33.488281 24.777344 33.488281 25.203125 Z M 33.488281 25.203125 " fill-opacity="1" fill-rule="nonzero"/><path fill="#000000" d="M 32.964844 18.359375 L 31.632812 19.707031 C 31.15625 20.195312 31.503906 21.015625 32.183594 21.015625 C 32.382812 21.015625 32.578125 20.941406 32.730469 20.789062 L 34.0625 19.4375 C 34.359375 19.132812 34.355469 18.648438 34.054688 18.351562 C 33.75 18.050781 33.265625 18.054688 32.964844 18.359375 Z M 32.964844 18.359375 " fill-opacity="1" fill-rule="nonzero"/><g clip-path="url(#e2168bde9f)"><path fill="#000000" d="M 72.742188 56.445312 C 71.242188 52.378906 66.589844 50.519531 62.71875 52.355469 L 53.40625 56.769531 L 45.882812 57.71875 C 43.949219 57.960938 42.5 59.675781 42.589844 61.625 C 42.683594 63.71875 44.464844 65.363281 46.628906 65.214844 L 55.34375 64.566406 C 55.449219 64.558594 55.558594 64.527344 55.652344 64.476562 L 55.746094 64.425781 C 55.796875 64.519531 55.867188 64.609375 55.957031 64.675781 L 61.460938 68.820312 C 62.523438 69.621094 63.96875 68.511719 63.46875 67.277344 L 61.238281 61.765625 C 61.199219 61.671875 61.140625 61.589844 61.074219 61.519531 L 62.378906 60.808594 C 62.75 60.605469 62.886719 60.140625 62.683594 59.769531 C 62.480469 59.394531 62.011719 59.257812 61.640625 59.460938 L 55.0625 63.046875 L 46.515625 63.679688 C 45.269531 63.773438 44.183594 62.820312 44.125 61.550781 C 44.074219 60.402344 44.929688 59.386719 46.074219 59.242188 L 53.722656 58.28125 C 53.804688 58.269531 53.882812 58.246094 53.957031 58.210938 L 63.378906 53.746094 C 66.441406 52.296875 70.113281 53.765625 71.296875 56.976562 C 74.488281 66.160156 76.066406 68.503906 76.445312 73.371094 C 76.632812 75.75 75.414062 78.050781 73.34375 79.238281 C 71.09375 80.527344 68.25 80.273438 66.261719 78.609375 L 54.59375 68.832031 C 54.273438 68.5625 53.800781 68.601562 53.523438 68.914062 L 43.910156 79.820312 C 43.195312 80.636719 41.960938 80.75 41.101562 80.078125 C 40.191406 79.363281 40.046875 78.042969 40.785156 77.152344 L 48.464844 67.882812 C 48.734375 67.554688 48.691406 67.070312 48.363281 66.800781 C 48.035156 66.53125 47.550781 66.574219 47.28125 66.902344 L 39.601562 76.171875 C 38.3125 77.726562 38.554688 80.035156 40.15625 81.289062 C 41.652344 82.460938 43.808594 82.261719 45.066406 80.835938 L 54.179688 70.492188 L 65.273438 79.789062 C 67.753906 81.867188 71.300781 82.179688 74.109375 80.574219 C 76.691406 79.09375 78.210938 76.21875 77.980469 73.25 C 77.578125 68.09375 75.902344 65.574219 72.742188 56.445312 Z M 59.8125 62.34375 L 61.738281 67.105469 L 57.15625 63.65625 L 59.789062 62.222656 C 59.796875 62.261719 59.796875 62.304688 59.8125 62.34375 Z M 59.8125 62.34375 " fill-opacity="1" fill-rule="nonzero"/></g><path fill="#000000" d="M 74.765625 68.910156 C 75.09375 68.636719 75.136719 68.152344 74.863281 67.824219 C 74.59375 67.5 74.109375 67.457031 73.78125 67.726562 C 71.0625 69.992188 65.597656 69.085938 65.542969 69.074219 C 65.125 69.003906 64.726562 69.28125 64.652344 69.699219 C 64.582031 70.121094 64.859375 70.515625 65.28125 70.589844 C 68.09375 71.082031 72.398438 70.878906 74.765625 68.910156 Z M 74.765625 68.910156 " fill-opacity="1" fill-rule="nonzero"/><path fill="#000000" d="M 62.875 37.441406 C 59.671875 37.441406 57.039062 39.941406 56.875 43.136719 L 56.789062 44.902344 C 56.710938 46.5 57.257812 48.03125 58.335938 49.21875 C 61.898438 53.148438 68.480469 50.808594 68.746094 45.492188 L 68.832031 43.726562 C 69.003906 40.257812 66.199219 37.441406 62.875 37.441406 Z M 62.554688 49.640625 C 60.101562 49.519531 58.203125 47.429688 58.324219 44.980469 L 58.398438 43.527344 C 59.460938 43.574219 61.273438 43.460938 62.761719 42.398438 C 62.894531 42.304688 63.089844 42.414062 63.148438 42.578125 C 64.019531 45.097656 65.121094 46.804688 66.421875 47.691406 C 65.574219 48.917969 64.140625 49.707031 62.554688 49.640625 Z M 67.078125 46.265625 C 66.152344 45.523438 65.304688 44.105469 64.601562 42.078125 C 64.210938 40.949219 62.855469 40.449219 61.875 41.144531 C 60.832031 41.886719 59.519531 42.007812 58.667969 41.996094 C 59.273438 40.238281 60.929688 38.980469 62.9375 38.980469 C 65.613281 39.078125 67.410156 41.273438 67.296875 43.648438 C 67.195312 45.238281 67.253906 45.554688 67.078125 46.265625 Z M 67.078125 46.265625 " fill-opacity="1" fill-rule="nonzero"/><path fill="#000000" d="M 69.472656 40.464844 C 69.085938 40.636719 68.914062 41.09375 69.089844 41.480469 C 69.261719 41.863281 69.714844 42.039062 70.105469 41.863281 C 72.25 40.894531 72.980469 37.925781 71.273438 36.011719 C 69.710938 34.265625 66.796875 34.300781 65.335938 36.484375 C 65.101562 36.835938 65.195312 37.3125 65.546875 37.550781 C 65.898438 37.785156 66.378906 37.691406 66.617188 37.335938 C 67.5 36.015625 69.210938 36.015625 70.125 37.039062 C 71.113281 38.140625 70.714844 39.90625 69.472656 40.464844 Z M 69.472656 40.464844 " fill-opacity="1" fill-rule="nonzero"/><path fill="#000000" d="M 30.476562 68.910156 C 30.554688 69.273438 30.875 69.523438 31.230469 69.523438 C 31.71875 69.523438 32.082031 69.074219 31.984375 68.597656 L 25.226562 36.410156 C 25.136719 35.996094 24.726562 35.730469 24.316406 35.816406 C 23.898438 35.902344 23.632812 36.3125 23.71875 36.726562 Z M 30.476562 68.910156 " fill-opacity="1" fill-rule="nonzero"/><path fill="#000000" d="M 37.140625 29.171875 C 36.914062 29.53125 37.015625 30.007812 37.375 30.234375 C 55.140625 41.558594 54.15625 41.113281 54.585938 41.113281 C 55.351562 41.113281 55.644531 40.109375 55 39.695312 L 38.207031 28.941406 C 37.847656 28.710938 37.371094 28.816406 37.140625 29.171875 Z M 37.140625 29.171875 " fill-opacity="1" fill-rule="nonzero"/><path fill="#000000" d="M 40.664062 47.816406 C 40.886719 48.175781 41.359375 48.285156 41.722656 48.058594 C 42.082031 47.832031 42.191406 47.359375 41.964844 47 L 34.164062 34.558594 C 33.941406 34.199219 33.464844 34.089844 33.105469 34.3125 C 32.746094 34.539062 32.636719 35.015625 32.863281 35.375 Z M 40.664062 47.816406 " fill-opacity="1" fill-rule="nonzero"/></svg>