<svg xmlns="http://www.w3.org/2000/svg" xmlns:xlink="http://www.w3.org/1999/xlink" width="128" zoomAndPan="magnify" viewBox="0 0 96 95.999999" height="128" preserveAspectRatio="xMidYMid meet" version="1.0"><defs><clipPath id="65c18bf71f"><path d="M 42 16.683594 L 54 16.683594 L 54 32 L 42 32 Z M 42 16.683594 " clip-rule="nonzero"/></clipPath><clipPath id="19b85df38a"><path d="M 16.644531 58 L 40 58 L 40 79.683594 L 16.644531 79.683594 Z M 16.644531 58 " clip-rule="nonzero"/></clipPath><clipPath id="8d68e9da96"><path d="M 56 58 L 79.644531 58 L 79.644531 79.683594 L 56 79.683594 Z M 56 58 " clip-rule="nonzero"/></clipPath><clipPath id="1ea48155a0"><path d="M 16.644531 16.683594 L 40 16.683594 L 40 38 L 16.644531 38 Z M 16.644531 16.683594 " clip-rule="nonzero"/></clipPath><clipPath id="9c789066a4"><path d="M 56 16.683594 L 79.644531 16.683594 L 79.644531 38 L 56 38 Z M 56 16.683594 " clip-rule="nonzero"/></clipPath></defs><path fill="#000000" d="M 48 96 C 21.539062 96 0 74.460938 0 48 C 0 21.539062 21.539062 0 48 0 C 74.460938 0 96 21.539062 96 48 C 96 74.460938 74.460938 96 48 96 Z M 48 0.710938 C 21.917969 0.710938 0.710938 21.917969 0.710938 48 C 0.710938 74.082031 21.917969 95.289062 48 95.289062 C 74.082031 95.289062 95.289062 74.082031 95.289062 48 C 95.289062 21.917969 74.082031 0.710938 48 0.710938 Z M 48 0.710938 " fill-opacity="1" fill-rule="nonzero"/><g clip-path="url(#65c18bf71f)"><path fill="#000000" d="M 43.757812 30.519531 L 47.140625 30.519531 C 47.140625 31.058594 47.582031 31.5 48.121094 31.5 C 48.660156 31.5 49.101562 31.058594 49.101562 30.519531 L 52.480469 30.519531 C 52.972656 30.519531 53.414062 30.128906 53.460938 29.636719 C 53.949219 25.121094 50.863281 23.160156 49.101562 22.71875 L 49.101562 17.761719 C 49.101562 17.222656 48.660156 16.78125 48.121094 16.78125 C 47.582031 16.78125 47.140625 17.222656 47.140625 17.761719 L 47.140625 22.71875 C 45.375 23.160156 42.289062 25.121094 42.777344 29.636719 C 42.828125 30.128906 43.269531 30.519531 43.757812 30.519531 Z M 47.582031 24.632812 L 48.660156 24.632812 C 49.148438 24.78125 51.453125 25.613281 51.550781 28.558594 L 44.691406 28.558594 C 44.789062 25.613281 47.042969 24.78125 47.582031 24.632812 Z M 47.582031 24.632812 " fill-opacity="1" fill-rule="nonzero"/></g><path fill="#000000" d="M 20.289062 28.753906 C 19.945312 28.902344 19.699219 29.246094 19.699219 29.636719 L 19.699219 65.847656 C 19.699219 66.238281 19.894531 66.535156 20.238281 66.730469 C 20.53125 66.878906 20.972656 66.878906 21.265625 66.632812 L 27.589844 61.972656 C 27.832031 61.773438 27.980469 61.480469 27.980469 61.1875 L 27.980469 34.789062 C 27.980469 34.496094 27.832031 34.199219 27.636719 34.054688 C 27.636719 34.054688 21.316406 28.902344 21.316406 28.851562 C 20.972656 28.605469 20.582031 28.605469 20.289062 28.753906 Z M 21.660156 31.699219 L 26.019531 35.28125 L 26.019531 60.695312 L 21.660156 63.882812 Z M 21.660156 31.699219 " fill-opacity="1" fill-rule="nonzero"/><path fill="#000000" d="M 31.117188 36.75 C 30.773438 36.898438 30.578125 37.242188 30.578125 37.632812 L 30.578125 57.996094 C 30.578125 58.390625 30.773438 58.683594 31.117188 58.878906 C 31.460938 59.027344 31.851562 59.027344 32.144531 58.78125 L 35.722656 56.179688 C 35.96875 55.984375 36.113281 55.691406 36.113281 55.394531 L 36.113281 40.578125 C 36.113281 40.285156 35.96875 39.988281 35.773438 39.792969 C 35.773438 39.792969 32.195312 36.898438 32.195312 36.847656 C 31.851562 36.605469 31.410156 36.605469 31.117188 36.75 Z M 32.488281 39.695312 L 34.105469 41.019531 L 34.105469 54.855469 L 32.488281 56.035156 Z M 32.488281 39.695312 " fill-opacity="1" fill-rule="nonzero"/><path fill="#000000" d="M 23.816406 40.972656 C 23.277344 40.972656 22.835938 41.414062 22.835938 41.953125 L 22.835938 43.570312 C 22.835938 44.109375 23.277344 44.554688 23.816406 44.554688 C 24.355469 44.554688 24.796875 44.109375 24.796875 43.570312 L 24.796875 41.953125 C 24.796875 41.363281 24.402344 40.972656 23.816406 40.972656 Z M 23.816406 40.972656 " fill-opacity="1" fill-rule="nonzero"/><path fill="#000000" d="M 23.816406 54.808594 C 23.277344 54.808594 22.835938 55.25 22.835938 55.789062 L 22.835938 57.40625 C 22.835938 57.949219 23.277344 58.390625 23.816406 58.390625 C 24.355469 58.390625 24.796875 57.949219 24.796875 57.40625 L 24.796875 55.789062 C 24.796875 55.25 24.402344 54.808594 23.816406 54.808594 Z M 23.816406 54.808594 " fill-opacity="1" fill-rule="nonzero"/><path fill="#000000" d="M 74.921875 28.851562 L 68.601562 34.054688 C 68.359375 34.25 68.257812 34.496094 68.257812 34.789062 L 68.257812 61.1875 C 68.257812 61.480469 68.40625 61.773438 68.652344 61.972656 C 68.652344 61.972656 74.972656 66.632812 74.972656 66.632812 C 75.265625 66.828125 75.660156 66.878906 76 66.730469 C 76.34375 66.582031 76.539062 66.238281 76.539062 65.847656 L 76.539062 29.636719 C 76.539062 29.246094 76.34375 28.902344 76 28.753906 C 75.660156 28.558594 75.21875 28.605469 74.921875 28.851562 Z M 74.582031 63.882812 L 70.21875 60.644531 L 70.21875 35.28125 L 74.582031 31.699219 Z M 74.582031 63.882812 " fill-opacity="1" fill-rule="nonzero"/><path fill="#000000" d="M 64.09375 36.847656 L 60.515625 39.792969 C 60.273438 39.988281 60.175781 40.285156 60.175781 40.578125 L 60.175781 55.394531 C 60.175781 55.691406 60.320312 55.984375 60.566406 56.179688 C 60.566406 56.179688 64.144531 58.78125 64.144531 58.78125 C 64.4375 58.976562 64.828125 59.027344 65.171875 58.878906 C 65.515625 58.734375 65.710938 58.390625 65.710938 57.996094 L 65.710938 37.632812 C 65.710938 37.242188 65.515625 36.898438 65.171875 36.75 C 64.78125 36.605469 64.386719 36.652344 64.09375 36.847656 Z M 63.75 56.082031 L 62.132812 54.90625 L 62.132812 41.019531 L 63.75 39.695312 Z M 63.75 56.082031 " fill-opacity="1" fill-rule="nonzero"/><path fill="#000000" d="M 72.425781 44.503906 C 72.964844 44.503906 73.40625 44.0625 73.40625 43.523438 L 73.40625 41.902344 C 73.40625 41.363281 72.964844 40.921875 72.425781 40.921875 C 71.886719 40.921875 71.445312 41.363281 71.445312 41.902344 L 71.445312 43.523438 C 71.445312 44.0625 71.835938 44.503906 72.425781 44.503906 Z M 72.425781 44.503906 " fill-opacity="1" fill-rule="nonzero"/><path fill="#000000" d="M 72.425781 58.390625 C 72.964844 58.390625 73.40625 57.949219 73.40625 57.40625 L 73.40625 55.789062 C 73.40625 55.25 72.964844 54.808594 72.425781 54.808594 C 71.886719 54.808594 71.445312 55.25 71.445312 55.789062 L 71.445312 57.40625 C 71.445312 57.949219 71.835938 58.390625 72.425781 58.390625 Z M 72.425781 58.390625 " fill-opacity="1" fill-rule="nonzero"/><path fill="#000000" d="M 52.53125 63.882812 C 53.070312 63.882812 53.511719 63.441406 53.511719 62.902344 C 53.511719 62.363281 53.070312 61.921875 52.53125 61.921875 L 43.710938 61.921875 C 43.171875 61.921875 42.730469 62.363281 42.730469 62.902344 C 42.730469 63.441406 43.171875 63.882812 43.710938 63.882812 Z M 52.53125 63.882812 " fill-opacity="1" fill-rule="nonzero"/><path fill="#000000" d="M 36.851562 67.808594 C 36.851562 68.347656 37.289062 68.792969 37.828125 68.792969 L 58.410156 68.792969 C 58.949219 68.792969 59.390625 68.347656 59.390625 67.808594 C 59.390625 67.269531 58.949219 66.828125 58.410156 66.828125 L 37.828125 66.828125 C 37.289062 66.828125 36.851562 67.269531 36.851562 67.808594 Z M 36.851562 67.808594 " fill-opacity="1" fill-rule="nonzero"/><path fill="#000000" d="M 62.332031 71.734375 L 33.910156 71.734375 C 33.371094 71.734375 32.929688 72.175781 32.929688 72.714844 C 32.929688 73.257812 33.371094 73.699219 33.910156 73.699219 L 62.332031 73.699219 C 62.871094 73.699219 63.308594 73.257812 63.308594 72.714844 C 63.308594 72.175781 62.871094 71.734375 62.332031 71.734375 Z M 62.332031 71.734375 " fill-opacity="1" fill-rule="nonzero"/><g clip-path="url(#19b85df38a)"><path fill="#000000" d="M 38.417969 58.78125 L 17.101562 77.867188 C 16.710938 78.210938 16.660156 78.847656 17.003906 79.242188 C 17.347656 79.632812 17.984375 79.683594 18.375 79.339844 L 39.542969 60.402344 C 39.003906 60.007812 38.613281 59.417969 38.417969 58.78125 Z M 38.417969 58.78125 " fill-opacity="1" fill-rule="nonzero"/></g><g clip-path="url(#8d68e9da96)"><path fill="#000000" d="M 57.820312 58.78125 C 57.625 59.46875 57.234375 60.007812 56.695312 60.402344 L 77.863281 79.339844 C 78.058594 79.488281 78.304688 79.585938 78.5 79.585938 C 78.746094 79.585938 79.039062 79.488281 79.234375 79.242188 C 79.578125 78.847656 79.578125 78.210938 79.136719 77.867188 Z M 57.820312 58.78125 " fill-opacity="1" fill-rule="nonzero"/></g><g clip-path="url(#1ea48155a0)"><path fill="#000000" d="M 38.417969 37.585938 C 38.613281 36.898438 39.003906 36.359375 39.542969 35.964844 L 18.375 17.027344 C 17.984375 16.683594 17.347656 16.683594 17.003906 17.125 C 16.660156 17.519531 16.660156 18.15625 17.101562 18.5 Z M 38.417969 37.585938 " fill-opacity="1" fill-rule="nonzero"/></g><g clip-path="url(#9c789066a4)"><path fill="#000000" d="M 57.820312 37.585938 L 79.1875 18.5 C 79.578125 18.15625 79.628906 17.519531 79.285156 17.125 C 78.941406 16.734375 78.304688 16.683594 77.914062 17.027344 L 56.695312 35.964844 C 57.234375 36.359375 57.625 36.949219 57.820312 37.585938 Z M 57.820312 37.585938 " fill-opacity="1" fill-rule="nonzero"/></g><path fill="#000000" d="M 41.261719 58.976562 L 54.980469 58.976562 C 55.519531 58.976562 55.960938 58.535156 55.960938 57.996094 L 55.960938 38.371094 C 55.960938 37.832031 55.519531 37.390625 54.980469 37.390625 L 41.261719 37.390625 C 40.722656 37.390625 40.28125 37.832031 40.28125 38.371094 L 40.28125 57.996094 C 40.28125 58.535156 40.722656 58.976562 41.261719 58.976562 Z M 42.238281 39.351562 L 54 39.351562 L 54 57.015625 L 42.238281 57.015625 Z M 42.238281 39.351562 " fill-opacity="1" fill-rule="nonzero"/><path fill="#000000" d="M 51.058594 47.203125 L 50.078125 47.203125 C 49.539062 47.203125 49.101562 47.644531 49.101562 48.183594 C 49.101562 48.722656 49.539062 49.164062 50.078125 49.164062 L 51.058594 49.164062 C 51.597656 49.164062 52.039062 48.722656 52.039062 48.183594 C 52.039062 47.644531 51.597656 47.203125 51.058594 47.203125 Z M 51.058594 47.203125 " fill-opacity="1" fill-rule="nonzero"/></svg>