<svg xmlns="http://www.w3.org/2000/svg" xmlns:xlink="http://www.w3.org/1999/xlink" width="128" zoomAndPan="magnify" viewBox="0 0 96 95.999999" height="128" preserveAspectRatio="xMidYMid meet" version="1.0"><defs><clipPath id="ec6bf7693b"><path d="M 56 18 L 70 18 L 70 81.976562 L 56 81.976562 Z M 56 18 " clip-rule="nonzero"/></clipPath><clipPath id="c7faddb404"><path d="M 19.335938 18 L 33 18 L 33 81.976562 L 19.335938 81.976562 Z M 19.335938 18 " clip-rule="nonzero"/></clipPath><clipPath id="f7c6ded590"><path d="M 36 13.726562 L 44 13.726562 L 44 23 L 36 23 Z M 36 13.726562 " clip-rule="nonzero"/></clipPath><clipPath id="63ad61d2e7"><path d="M 72 41 L 76.335938 41 L 76.335938 46 L 72 46 Z M 72 41 " clip-rule="nonzero"/></clipPath><clipPath id="06cc934305"><path d="M 72 48 L 76.335938 48 L 76.335938 53 L 72 53 Z M 72 48 " clip-rule="nonzero"/></clipPath><clipPath id="e04a6c09f5"><path d="M 72 46 L 76.335938 46 L 76.335938 48 L 72 48 Z M 72 46 " clip-rule="nonzero"/></clipPath></defs><path fill="#000000" d="M 48 96 C 21.539062 96 0 74.460938 0 48 C 0 21.539062 21.539062 0 48 0 C 74.460938 0 96 21.539062 96 48 C 96 74.460938 74.460938 96 48 96 Z M 48 0.710938 C 21.917969 0.710938 0.710938 21.917969 0.710938 48 C 0.710938 74.082031 21.917969 95.289062 48 95.289062 C 74.082031 95.289062 95.289062 74.082031 95.289062 48 C 95.289062 21.917969 74.082031 0.710938 48 0.710938 Z M 48 0.710938 " fill-opacity="1" fill-rule="nonzero"/><g clip-path="url(#ec6bf7693b)"><path fill="#000000" d="M 68.253906 18.53125 L 57.578125 18.53125 C 57.054688 18.53125 56.632812 18.96875 56.652344 19.496094 C 56.667969 19.996094 57.097656 20.390625 57.601562 20.390625 L 68.007812 20.390625 L 68.007812 80.976562 C 68.007812 81.480469 68.398438 81.910156 68.902344 81.929688 C 69.429688 81.949219 69.863281 81.523438 69.863281 81 L 69.863281 20.140625 C 69.863281 19.253906 69.144531 18.53125 68.253906 18.53125 Z M 68.253906 18.53125 " fill-opacity="1" fill-rule="nonzero"/></g><g clip-path="url(#c7faddb404)"><path fill="#000000" d="M 32.175781 19.425781 C 32.160156 18.925781 31.730469 18.53125 31.226562 18.53125 L 20.945312 18.53125 C 20.058594 18.53125 19.339844 19.253906 19.339844 20.140625 L 19.339844 80.976562 C 19.339844 81.480469 19.730469 81.910156 20.230469 81.929688 C 20.757812 81.945312 21.191406 81.523438 21.191406 81 L 21.191406 20.390625 L 31.25 20.390625 C 31.773438 20.390625 32.195312 19.953125 32.175781 19.425781 Z M 32.175781 19.425781 " fill-opacity="1" fill-rule="nonzero"/></g><path fill="#000000" d="M 61.816406 25.078125 L 27.570312 25.078125 C 26.683594 25.078125 25.964844 25.796875 25.964844 26.679688 L 25.964844 76.007812 C 25.964844 76.894531 26.683594 77.613281 27.570312 77.613281 L 61.816406 77.613281 C 62.703125 77.613281 63.417969 76.894531 63.417969 76.007812 L 63.417969 26.679688 C 63.417969 25.796875 62.703125 25.078125 61.816406 25.078125 Z M 27.820312 75.757812 L 27.820312 26.933594 L 43.671875 26.933594 L 43.765625 75.757812 Z M 61.566406 75.757812 L 45.617188 75.757812 L 45.527344 26.933594 L 61.566406 26.933594 Z M 61.566406 75.757812 " fill-opacity="1" fill-rule="nonzero"/><path fill="#000000" d="M 47.183594 19.125 L 47.84375 18.460938 L 47.84375 22.058594 C 47.84375 22.699219 48.363281 23.21875 49.003906 23.21875 C 49.644531 23.21875 50.164062 22.703125 50.164062 22.058594 L 50.164062 18.460938 L 50.824219 19.125 C 51.050781 19.347656 51.347656 19.460938 51.644531 19.460938 C 51.941406 19.460938 52.238281 19.347656 52.464844 19.125 C 52.917969 18.671875 52.917969 17.933594 52.464844 17.480469 L 49.003906 14.019531 L 45.542969 17.480469 C 45.09375 17.933594 45.09375 18.667969 45.542969 19.125 C 45.996094 19.574219 46.730469 19.574219 47.183594 19.125 Z M 47.183594 19.125 " fill-opacity="1" fill-rule="nonzero"/><g clip-path="url(#f7c6ded590)"><path fill="#000000" d="M 40.105469 22.957031 L 43.5625 19.496094 C 44.015625 19.042969 44.015625 18.308594 43.5625 17.851562 C 43.109375 17.398438 42.378906 17.398438 41.925781 17.851562 L 41.261719 18.515625 L 41.261719 14.917969 C 41.261719 14.277344 40.742188 13.753906 40.101562 13.753906 C 39.460938 13.753906 38.945312 14.273438 38.945312 14.917969 L 38.945312 18.515625 L 38.28125 17.851562 C 37.828125 17.398438 37.097656 17.398438 36.644531 17.851562 C 36.191406 18.304688 36.191406 19.042969 36.644531 19.496094 Z M 40.105469 22.957031 " fill-opacity="1" fill-rule="nonzero"/></g><g clip-path="url(#63ad61d2e7)"><path fill="#000000" d="M 74.28125 41.78125 L 72.222656 45.351562 L 76.339844 45.351562 Z M 74.28125 41.78125 " fill-opacity="1" fill-rule="nonzero"/></g><g clip-path="url(#06cc934305)"><path fill="#000000" d="M 74.28125 52.535156 L 76.339844 48.96875 L 72.222656 48.96875 Z M 74.28125 52.535156 " fill-opacity="1" fill-rule="nonzero"/></g><g clip-path="url(#e04a6c09f5)"><path fill="#000000" d="M 72.832031 46.636719 C 72.503906 46.636719 72.238281 46.902344 72.238281 47.230469 C 72.238281 47.558594 72.503906 47.824219 72.832031 47.824219 L 75.734375 47.824219 C 76.0625 47.824219 76.328125 47.558594 76.328125 47.230469 C 76.328125 46.902344 76.0625 46.636719 75.734375 46.636719 Z M 72.832031 46.636719 " fill-opacity="1" fill-rule="nonzero"/></g></svg>