<svg xmlns="http://www.w3.org/2000/svg" xmlns:xlink="http://www.w3.org/1999/xlink" width="128" zoomAndPan="magnify" viewBox="0 0 96 95.999999" height="128" preserveAspectRatio="xMidYMid meet" version="1.0"><defs><clipPath id="19dca81ef6"><path d="M 12.15625 18.429688 L 84 18.429688 L 84 77.679688 L 12.15625 77.679688 Z M 12.15625 18.429688 " clip-rule="nonzero"/></clipPath></defs><path fill="#000000" d="M 48 96 C 21.539062 96 0 74.460938 0 48 C 0 21.539062 21.539062 0 48 0 C 74.460938 0 96 21.539062 96 48 C 96 74.460938 74.460938 96 48 96 Z M 48 0.710938 C 21.917969 0.710938 0.710938 21.917969 0.710938 48 C 0.710938 74.082031 21.917969 95.289062 48 95.289062 C 74.082031 95.289062 95.289062 74.082031 95.289062 48 C 95.289062 21.917969 74.082031 0.710938 48 0.710938 Z M 48 0.710938 " fill-opacity="1" fill-rule="nonzero"/><g clip-path="url(#19dca81ef6)"><path fill="#000000" d="M 80.523438 61.804688 C 80.101562 62.835938 79.496094 63.933594 78.75 65.03125 L 76.535156 62.816406 C 76.464844 62.75 76.390625 62.683594 76.3125 62.621094 C 74.855469 61.445312 72.417969 61.886719 70.644531 63.65625 C 70.261719 64.042969 69.929688 64.464844 69.667969 64.90625 C 69.617188 64.996094 69.566406 65.085938 69.519531 65.171875 C 68.730469 66.675781 68.757812 68.25 69.59375 69.296875 C 69.625 69.335938 69.65625 69.371094 69.6875 69.410156 C 69.726562 69.449219 69.761719 69.488281 69.804688 69.53125 L 72.019531 71.742188 C 71.289062 72.238281 70.5625 72.667969 69.84375 73.03125 C 67.699219 74.105469 65.800781 74.480469 64.636719 74.050781 C 64.382812 73.957031 64.164062 73.824219 63.992188 73.652344 C 63.8125 73.46875 63.675781 73.253906 63.582031 72.980469 C 63.183594 71.863281 63.523438 70.058594 64.507812 68.03125 C 65.496094 65.992188 67.035156 63.902344 68.964844 61.980469 C 69.714844 61.226562 70.503906 60.527344 71.308594 59.894531 C 73.59375 58.101562 76 56.878906 77.917969 56.542969 C 78.742188 56.398438 79.457031 56.421875 79.996094 56.609375 C 80.265625 56.703125 80.480469 56.839844 80.664062 57.019531 C 81.472656 57.828125 81.421875 59.613281 80.523438 61.804688 Z M 79.183594 69.542969 C 79.070312 70.101562 78.71875 70.707031 78.214844 71.210938 C 77.714844 71.710938 77.105469 72.0625 76.546875 72.171875 C 76.167969 72.25 75.847656 72.203125 75.691406 72.050781 C 75.347656 71.707031 75.507812 70.554688 76.535156 69.53125 C 77.246094 68.824219 78.015625 68.527344 78.539062 68.527344 C 78.769531 68.527344 78.953125 68.585938 79.058594 68.691406 C 79.210938 68.847656 79.257812 69.164062 79.183594 69.542969 Z M 71.488281 67.855469 C 71.480469 67.847656 71.472656 67.839844 71.464844 67.832031 C 71.464844 67.828125 71.460938 67.824219 71.457031 67.820312 C 71.269531 67.589844 71.242188 67.007812 71.628906 66.273438 C 71.652344 66.222656 71.679688 66.175781 71.714844 66.121094 C 71.878906 65.84375 72.085938 65.578125 72.328125 65.335938 C 73.316406 64.347656 74.445312 64.164062 74.816406 64.46875 C 74.824219 64.472656 74.824219 64.472656 74.828125 64.476562 C 74.835938 64.484375 74.84375 64.488281 74.851562 64.496094 L 76.863281 66.503906 C 76.160156 66.785156 75.46875 67.238281 74.851562 67.855469 C 74.234375 68.46875 73.78125 69.160156 73.496094 69.859375 Z M 59.835938 72.863281 C 57.914062 73.203125 56.382812 72.925781 55.503906 72.050781 L 55.496094 72.042969 C 54.292969 70.835938 54.226562 68.433594 55.3125 65.453125 C 56.523438 62.125 58.980469 58.507812 62.234375 55.265625 C 65.484375 52.023438 69.109375 49.570312 72.445312 48.359375 C 73.859375 47.847656 75.140625 47.59375 76.226562 47.59375 C 77.441406 47.59375 78.414062 47.914062 79.054688 48.546875 L 79.058594 48.550781 C 79.949219 49.441406 80.226562 50.945312 79.878906 52.878906 L 78.980469 51.984375 C 77.507812 50.515625 75.054688 50.316406 72.0625 51.425781 C 69.378906 52.417969 66.484375 54.378906 63.914062 56.941406 C 61.34375 59.507812 59.378906 62.394531 58.382812 65.074219 C 57.273438 68.054688 57.472656 70.503906 58.945312 71.972656 Z M 51.945312 62.097656 C 53.160156 58.769531 55.617188 55.152344 58.871094 51.910156 C 62.117188 48.667969 65.746094 46.214844 69.082031 45.003906 C 72.074219 43.917969 74.484375 43.988281 75.691406 45.195312 L 75.730469 45.230469 C 74.484375 45.296875 73.109375 45.59375 71.632812 46.128906 C 67.976562 47.457031 64.042969 50.105469 60.550781 53.585938 C 57.058594 57.070312 54.40625 60.996094 53.074219 64.640625 C 52.539062 66.117188 52.238281 67.488281 52.175781 68.730469 L 52.140625 68.691406 C 50.929688 67.484375 50.859375 65.082031 51.945312 62.097656 Z M 33.695312 56.316406 L 52.230469 56.316406 C 51.207031 57.910156 50.382812 59.511719 49.796875 61.0625 L 33.695312 61.0625 Z M 31.316406 72.933594 C 31.316406 74.242188 30.246094 75.304688 28.9375 75.304688 C 27.625 75.304688 26.554688 74.242188 26.554688 72.933594 L 26.554688 44.449219 C 26.554688 43.140625 27.625 42.074219 28.9375 42.074219 C 30.246094 42.074219 31.316406 43.140625 31.316406 44.449219 Z M 21.796875 66.996094 C 20.484375 66.996094 19.417969 65.933594 19.417969 64.625 L 19.417969 52.757812 C 19.417969 51.449219 20.484375 50.382812 21.796875 50.382812 C 23.109375 50.382812 24.175781 51.449219 24.175781 52.757812 L 24.175781 64.625 C 24.175781 65.933594 23.109375 66.996094 21.796875 66.996094 Z M 28.648438 34.011719 C 29.527344 31.644531 31.300781 29.0625 33.632812 26.734375 C 35.964844 24.40625 38.554688 22.640625 40.925781 21.761719 C 42.671875 21.113281 44.148438 21.035156 44.996094 21.519531 C 41.75 22.964844 38.363281 25.371094 35.3125 28.410156 C 32.277344 31.445312 29.851562 34.851562 28.40625 38.074219 C 27.921875 37.226562 28 35.753906 28.648438 34.011719 Z M 30.265625 26.734375 C 30.113281 26.578125 30.066406 26.261719 30.140625 25.882812 C 30.253906 25.324219 30.605469 24.71875 31.109375 24.214844 C 31.609375 23.714844 32.21875 23.363281 32.777344 23.25 C 33.15625 23.175781 33.476562 23.222656 33.632812 23.375 L 33.699219 23.445312 C 33.105469 23.949219 32.519531 24.488281 31.949219 25.054688 C 31.378906 25.621094 30.84375 26.207031 30.335938 26.800781 Z M 53.820312 23.375 L 53.859375 23.414062 C 52.613281 23.476562 51.238281 23.777344 49.761719 24.3125 C 46.105469 25.636719 42.171875 28.285156 38.679688 31.769531 C 35.804688 34.632812 33.503906 37.796875 32.039062 40.855469 C 31.519531 40.40625 30.902344 40.070312 30.226562 39.878906 C 31.472656 36.695312 33.878906 33.199219 36.996094 30.089844 C 40.246094 26.847656 43.875 24.394531 47.210938 23.1875 C 50.199219 22.101562 52.613281 22.167969 53.820312 23.375 Z M 53.601562 39.941406 L 49.613281 35.964844 C 48.886719 35.234375 47.792969 34.953125 46.609375 35.191406 C 45.589844 35.394531 44.566406 35.964844 43.726562 36.800781 C 42.886719 37.640625 42.3125 38.660156 42.109375 39.679688 C 41.875 40.859375 42.15625 41.949219 42.882812 42.675781 L 46.871094 46.65625 C 41.417969 50.8125 35.910156 52.367188 33.695312 50.285156 L 33.695312 44.449219 C 33.695312 44.0625 33.648438 43.6875 33.558594 43.328125 C 34.804688 40.085938 37.207031 36.59375 40.363281 33.445312 C 43.613281 30.203125 47.238281 27.75 50.574219 26.542969 C 53.566406 25.457031 55.976562 25.523438 57.1875 26.734375 C 59.359375 28.902344 57.808594 34.449219 53.601562 39.941406 Z M 55.554688 51.960938 L 44.566406 41 C 44.414062 40.84375 44.367188 40.527344 44.441406 40.144531 C 44.554688 39.589844 44.90625 38.980469 45.410156 38.480469 C 45.910156 37.980469 46.519531 37.628906 47.078125 37.519531 C 47.457031 37.441406 47.777344 37.488281 47.933594 37.640625 L 58.917969 48.605469 C 58.332031 49.121094 57.753906 49.664062 57.1875 50.230469 C 56.621094 50.796875 56.078125 51.375 55.554688 51.960938 Z M 33.695312 53.054688 C 34.507812 53.386719 35.4375 53.550781 36.453125 53.550781 C 39.84375 53.550781 44.210938 51.734375 48.566406 48.347656 L 54.027344 53.792969 C 53.988281 53.839844 53.949219 53.890625 53.910156 53.941406 L 33.695312 53.941406 Z M 64.625 44.449219 C 64.625 43.816406 64.875 43.21875 65.320312 42.769531 C 65.773438 42.324219 66.371094 42.074219 67.003906 42.074219 C 67.601562 42.074219 68.152344 42.292969 68.578125 42.664062 C 68.472656 42.699219 68.371094 42.734375 68.265625 42.773438 C 67.074219 43.207031 65.851562 43.78125 64.625 44.476562 Z M 62.578125 66.570312 C 62.226562 67.253906 61.910156 67.960938 61.652344 68.691406 C 61.429688 69.320312 61.125 70.109375 61.125 70.789062 L 60.625 70.292969 C 59.875 69.542969 59.871094 67.898438 60.613281 65.898438 C 61.496094 63.53125 63.265625 60.949219 65.597656 58.621094 C 67.929688 56.292969 70.519531 54.527344 72.890625 53.648438 C 74.898438 52.90625 76.546875 52.910156 77.300781 53.664062 L 77.796875 54.160156 C 77.703125 54.175781 77.605469 54.1875 77.503906 54.207031 C 75.179688 54.613281 72.457031 55.972656 69.839844 58.03125 C 68.960938 58.71875 68.097656 59.480469 67.28125 60.300781 C 65.300781 62.273438 63.683594 64.433594 62.578125 66.570312 Z M 14.660156 61.0625 L 14.660156 56.316406 L 17.039062 56.316406 L 17.039062 61.0625 Z M 82.347656 55.339844 L 81.847656 54.84375 C 82.851562 51.414062 82.464844 48.59375 80.742188 46.871094 C 80.738281 46.867188 80.730469 46.863281 80.726562 46.859375 L 77.375 43.515625 C 75.9375 42.082031 73.757812 41.574219 71.089844 42.015625 C 70.246094 40.597656 68.714844 39.703125 67.003906 39.703125 C 65.738281 39.703125 64.539062 40.195312 63.640625 41.09375 C 62.738281 41.992188 62.246094 43.183594 62.246094 44.449219 L 62.246094 45.980469 C 61.746094 46.328125 61.25 46.695312 60.757812 47.078125 L 55.296875 41.632812 C 60.539062 34.925781 62.023438 28.199219 58.871094 25.054688 L 55.503906 21.695312 C 53.769531 19.964844 50.957031 19.585938 47.511719 20.589844 L 47.015625 20.09375 C 45.542969 18.628906 43.085938 18.429688 40.097656 19.535156 C 38.628906 20.082031 37.097656 20.914062 35.59375 21.976562 L 35.3125 21.699219 C 34.585938 20.96875 33.492188 20.6875 32.3125 20.921875 C 31.289062 21.128906 30.265625 21.699219 29.425781 22.535156 C 28.589844 23.375 28.015625 24.394531 27.808594 25.414062 C 27.570312 26.589844 27.855469 27.683594 28.585938 28.410156 L 28.863281 28.6875 C 27.800781 30.191406 26.964844 31.71875 26.417969 33.183594 C 25.308594 36.164062 25.507812 38.617188 26.980469 40.082031 L 27.003906 40.109375 C 25.339844 40.851562 24.175781 42.515625 24.175781 44.449219 L 24.175781 48.648438 C 23.476562 48.242188 22.664062 48.007812 21.796875 48.007812 C 19.175781 48.007812 17.039062 50.140625 17.039062 52.753906 L 17.039062 53.941406 L 13.46875 53.941406 C 12.8125 53.941406 12.28125 54.472656 12.28125 55.128906 L 12.28125 62.25 C 12.28125 62.90625 12.8125 63.4375 13.46875 63.4375 L 17.039062 63.4375 L 17.039062 64.625 C 17.039062 67.242188 19.175781 69.371094 21.796875 69.371094 C 22.664062 69.371094 23.476562 69.136719 24.175781 68.734375 L 24.175781 72.929688 C 24.175781 75.546875 26.3125 77.679688 28.9375 77.679688 C 31.558594 77.679688 33.695312 75.546875 33.695312 72.929688 L 33.695312 63.4375 L 49.078125 63.4375 C 48.433594 66.402344 48.898438 68.816406 50.457031 70.371094 L 53.808594 73.714844 C 53.8125 73.71875 53.816406 73.722656 53.820312 73.726562 C 54.921875 74.824219 56.464844 75.378906 58.328125 75.378906 C 59.390625 75.378906 60.558594 75.195312 61.8125 74.832031 L 62.308594 75.328125 C 62.726562 75.746094 63.234375 76.066406 63.816406 76.28125 C 64.386719 76.488281 65.027344 76.589844 65.722656 76.589844 C 67.234375 76.589844 69.015625 76.101562 70.914062 75.152344 C 71.847656 74.679688 72.792969 74.109375 73.730469 73.449219 L 74.007812 73.726562 L 74.011719 73.726562 C 74.570312 74.285156 75.347656 74.582031 76.214844 74.582031 C 76.472656 74.582031 76.742188 74.554688 77.011719 74.5 C 78.035156 74.296875 79.0625 73.722656 79.898438 72.886719 C 80.738281 72.050781 81.3125 71.03125 81.515625 70.007812 C 81.753906 68.832031 81.46875 67.742188 80.738281 67.011719 L 80.742188 67.011719 L 80.460938 66.730469 C 81.417969 65.378906 82.195312 64.003906 82.726562 62.699219 C 84.039062 59.503906 83.902344 56.894531 82.347656 55.339844 " fill-opacity="1" fill-rule="nonzero"/></g></svg>