<svg xmlns="http://www.w3.org/2000/svg" xmlns:xlink="http://www.w3.org/1999/xlink" width="128" zoomAndPan="magnify" viewBox="0 0 96 95.999999" height="128" preserveAspectRatio="xMidYMid meet" version="1.0"><defs><clipPath id="6dda071a25"><path d="M 70 13.378906 L 76.882812 13.378906 L 76.882812 82.378906 L 70 82.378906 Z M 70 13.378906 " clip-rule="nonzero"/></clipPath><clipPath id="dbb93bed50"><path d="M 19.132812 13.378906 L 26 13.378906 L 26 82.378906 L 19.132812 82.378906 Z M 19.132812 13.378906 " clip-rule="nonzero"/></clipPath></defs><path fill="#000000" d="M 48 96 C 21.539062 96 0 74.460938 0 48 C 0 21.539062 21.539062 0 48 0 C 74.460938 0 96 21.539062 96 48 C 96 74.460938 74.460938 96 48 96 Z M 48 0.710938 C 21.917969 0.710938 0.710938 21.917969 0.710938 48 C 0.710938 74.082031 21.917969 95.289062 48 95.289062 C 74.082031 95.289062 95.289062 74.082031 95.289062 48 C 95.289062 21.917969 74.082031 0.710938 48 0.710938 Z M 48 0.710938 " fill-opacity="1" fill-rule="nonzero"/><path fill="#201e1b" d="M 61.4375 48.085938 L 59.136719 48.085938 C 57.976562 48.085938 57.03125 47.152344 57.03125 46.007812 L 57.03125 43.65625 C 57.03125 43.265625 57.351562 42.945312 57.75 42.945312 L 61.375 42.945312 C 61.78125 42.945312 62.109375 42.625 62.109375 42.230469 C 62.109375 41.835938 62.429688 41.515625 62.824219 41.515625 C 63.21875 41.515625 63.542969 41.835938 63.542969 42.230469 L 63.542969 46.007812 C 63.542969 47.152344 62.597656 48.085938 61.4375 48.085938 Z M 58.464844 44.371094 L 58.464844 46.007812 C 58.464844 46.363281 58.765625 46.65625 59.136719 46.65625 L 61.4375 46.65625 C 61.808594 46.65625 62.109375 46.363281 62.109375 46.007812 L 62.109375 44.246094 C 61.878906 44.328125 61.632812 44.371094 61.375 44.371094 Z M 36.875 48.085938 L 34.574219 48.085938 C 33.414062 48.085938 32.46875 47.152344 32.46875 46.007812 L 32.46875 42.230469 C 32.46875 41.84375 32.78125 41.523438 33.171875 41.515625 C 33.480469 41.523438 33.886719 41.8125 33.902344 42.203125 C 33.917969 42.617188 34.242188 42.945312 34.636719 42.945312 L 38.261719 42.945312 C 38.660156 42.945312 38.980469 43.265625 38.980469 43.65625 L 38.980469 46.007812 C 38.980469 47.152344 38.035156 48.085938 36.875 48.085938 Z M 33.902344 44.242188 L 33.902344 46.007812 C 33.902344 46.363281 34.203125 46.65625 34.574219 46.65625 L 36.875 46.65625 C 37.246094 46.65625 37.546875 46.363281 37.546875 46.007812 L 37.546875 44.371094 L 34.636719 44.371094 C 34.378906 44.371094 34.132812 44.324219 33.902344 44.242188 Z M 33.902344 44.242188 " fill-opacity="1" fill-rule="nonzero"/><path fill="#201e1b" d="M 55.792969 62.234375 L 34.542969 62.234375 C 34.148438 62.234375 33.824219 61.914062 33.824219 61.519531 C 33.824219 61.125 34.148438 60.804688 34.542969 60.804688 L 55.792969 60.804688 C 56.1875 60.804688 56.511719 61.125 56.511719 61.519531 C 56.511719 61.914062 56.1875 62.234375 55.792969 62.234375 Z M 61.375 44.371094 L 34.636719 44.371094 C 33.464844 44.371094 32.46875 43.378906 32.46875 42.199219 L 32.46875 37.695312 C 32.46875 36.769531 32.761719 35.894531 33.308594 35.15625 L 36.398438 27.160156 C 36.890625 25.914062 38.035156 25.132812 39.453125 25.054688 L 56.550781 25.050781 C 58.015625 25.132812 59.175781 25.945312 59.621094 27.171875 L 62.734375 35.164062 C 63.253906 35.90625 63.542969 36.804688 63.542969 37.695312 L 63.542969 42.199219 C 63.542969 43.378906 62.546875 44.371094 61.375 44.371094 Z M 35.378906 33.777344 L 34.613281 35.761719 C 34.585938 35.828125 34.550781 35.890625 34.507812 35.945312 C 34.113281 36.449219 33.902344 37.054688 33.902344 37.695312 L 33.902344 42.199219 C 33.902344 42.597656 34.246094 42.945312 34.636719 42.945312 L 61.375 42.945312 C 61.765625 42.945312 62.109375 42.597656 62.109375 42.199219 L 62.109375 37.695312 C 62.109375 37.070312 61.898438 36.445312 61.519531 35.925781 C 61.484375 35.875 61.453125 35.824219 61.433594 35.765625 L 58.277344 27.675781 C 58.023438 26.976562 57.351562 26.527344 56.511719 26.480469 L 39.496094 26.480469 C 38.671875 26.527344 38.015625 26.964844 37.730469 27.679688 L 35.929688 32.347656 L 54.34375 32.347656 C 54.738281 32.347656 55.058594 32.667969 55.058594 33.0625 C 55.058594 33.457031 54.738281 33.777344 54.34375 33.777344 Z M 35.378906 33.777344 " fill-opacity="1" fill-rule="nonzero"/><path fill="#201e1b" d="M 51.472656 41.867188 L 44.539062 41.867188 C 43.671875 41.867188 42.9375 41.132812 42.9375 40.265625 L 42.9375 39.375 C 42.9375 38.472656 43.65625 37.742188 44.539062 37.742188 L 51.472656 37.742188 C 52.371094 37.742188 53.074219 38.457031 53.074219 39.375 L 53.074219 40.265625 C 53.074219 41.148438 52.355469 41.867188 51.472656 41.867188 Z M 44.539062 39.167969 C 44.472656 39.167969 44.371094 39.253906 44.371094 39.375 L 44.371094 40.265625 C 44.371094 40.34375 44.460938 40.4375 44.539062 40.4375 L 51.472656 40.4375 C 51.578125 40.4375 51.640625 40.351562 51.640625 40.265625 L 51.640625 39.375 C 51.640625 39.277344 51.589844 39.167969 51.472656 39.167969 Z M 44.539062 39.167969 " fill-opacity="1" fill-rule="nonzero"/><path fill="#201e1b" d="M 57.621094 42.214844 C 56.128906 42.214844 54.917969 41.011719 54.917969 39.535156 C 54.917969 38.039062 56.128906 36.820312 57.621094 36.820312 C 59.09375 36.820312 60.292969 38.039062 60.292969 39.535156 C 60.292969 41.011719 59.09375 42.214844 57.621094 42.214844 Z M 57.621094 38.25 C 56.910156 38.25 56.351562 38.8125 56.351562 39.535156 C 56.351562 40.226562 56.921875 40.789062 57.621094 40.789062 C 58.304688 40.789062 58.859375 40.226562 58.859375 39.535156 C 58.859375 38.824219 58.304688 38.25 57.621094 38.25 Z M 38.421875 42.214844 C 36.929688 42.214844 35.71875 41.011719 35.71875 39.535156 C 35.71875 38.039062 36.929688 36.820312 38.421875 36.820312 C 39.894531 36.820312 41.09375 38.039062 41.09375 39.535156 C 41.09375 41.011719 39.894531 42.214844 38.421875 42.214844 Z M 38.421875 38.25 C 37.710938 38.25 37.152344 38.8125 37.152344 39.535156 C 37.152344 40.226562 37.722656 40.789062 38.421875 40.789062 C 39.105469 40.789062 39.660156 40.226562 39.660156 39.535156 C 39.660156 38.824219 39.105469 38.25 38.421875 38.25 Z M 38.421875 38.25 " fill-opacity="1" fill-rule="nonzero"/><path fill="#201e1b" d="M 71.496094 50.148438 L 24.515625 50.148438 C 24.121094 50.148438 23.800781 49.828125 23.800781 49.433594 L 23.800781 47.371094 C 23.800781 46.976562 24.121094 46.65625 24.515625 46.65625 L 71.496094 46.65625 C 71.890625 46.65625 72.210938 46.976562 72.210938 47.371094 L 72.210938 49.433594 C 72.210938 49.828125 71.890625 50.148438 71.496094 50.148438 Z M 25.234375 48.71875 L 70.777344 48.71875 L 70.777344 48.085938 L 25.234375 48.085938 Z M 25.234375 48.71875 " fill-opacity="1" fill-rule="nonzero"/><path fill="#201e1b" d="M 61.4375 75.652344 L 59.136719 75.652344 C 57.976562 75.652344 57.03125 74.707031 57.03125 73.542969 L 57.03125 71.195312 C 57.03125 70.800781 57.351562 70.480469 57.75 70.480469 L 61.375 70.480469 C 61.773438 70.480469 62.109375 70.15625 62.109375 69.769531 C 62.109375 69.375 62.429688 69.054688 62.824219 69.054688 C 63.21875 69.054688 63.542969 69.375 63.542969 69.769531 L 63.542969 73.542969 C 63.542969 74.707031 62.597656 75.652344 61.4375 75.652344 Z M 58.464844 71.910156 L 58.464844 73.542969 C 58.464844 73.914062 58.773438 74.222656 59.136719 74.222656 L 61.4375 74.222656 C 61.800781 74.222656 62.109375 73.914062 62.109375 73.542969 L 62.109375 71.78125 C 61.878906 71.863281 61.632812 71.910156 61.375 71.910156 Z M 36.875 75.652344 L 34.574219 75.652344 C 33.414062 75.652344 32.46875 74.707031 32.46875 73.542969 L 32.46875 69.769531 C 32.46875 69.378906 32.78125 69.0625 33.171875 69.054688 C 33.480469 69.007812 33.886719 69.347656 33.902344 69.738281 C 33.917969 70.15625 34.242188 70.480469 34.636719 70.480469 L 38.261719 70.480469 C 38.660156 70.480469 38.980469 70.800781 38.980469 71.195312 L 38.980469 73.542969 C 38.980469 74.707031 38.035156 75.652344 36.875 75.652344 Z M 33.902344 71.78125 L 33.902344 73.542969 C 33.902344 73.914062 34.210938 74.222656 34.574219 74.222656 L 36.875 74.222656 C 37.238281 74.222656 37.546875 73.914062 37.546875 73.542969 L 37.546875 71.910156 L 34.636719 71.910156 C 34.378906 71.910156 34.132812 71.863281 33.902344 71.78125 Z M 33.902344 71.78125 " fill-opacity="1" fill-rule="nonzero"/><path fill="#201e1b" d="M 61.375 71.910156 L 34.636719 71.910156 C 33.464844 71.910156 32.46875 70.914062 32.46875 69.734375 L 32.46875 65.230469 C 32.46875 64.320312 32.769531 63.421875 33.3125 62.691406 L 36.398438 54.726562 C 36.890625 53.449219 38.039062 52.660156 39.476562 52.621094 L 56.550781 52.621094 C 58.003906 52.660156 59.175781 53.476562 59.621094 54.75 L 62.734375 62.699219 C 63.253906 63.445312 63.542969 64.335938 63.542969 65.230469 L 63.542969 69.734375 C 63.542969 70.914062 62.546875 71.910156 61.375 71.910156 Z M 39.492188 54.050781 C 38.664062 54.070312 38.019531 54.503906 37.734375 55.238281 L 34.613281 63.296875 C 34.585938 63.363281 34.550781 63.425781 34.507812 63.480469 C 34.117188 63.976562 33.902344 64.601562 33.902344 65.230469 L 33.902344 69.734375 C 33.902344 70.132812 34.246094 70.480469 34.636719 70.480469 L 61.375 70.480469 C 61.765625 70.480469 62.109375 70.132812 62.109375 69.734375 L 62.109375 65.230469 C 62.109375 64.605469 61.898438 63.980469 61.519531 63.460938 C 61.484375 63.414062 61.453125 63.359375 61.433594 63.300781 L 58.277344 55.242188 C 58.019531 54.511719 57.371094 54.070312 56.53125 54.050781 Z M 39.492188 54.050781 " fill-opacity="1" fill-rule="nonzero"/><path fill="#201e1b" d="M 51.472656 69.402344 L 44.539062 69.402344 C 43.671875 69.402344 42.9375 68.667969 42.9375 67.800781 L 42.9375 66.914062 C 42.9375 66.011719 43.65625 65.277344 44.539062 65.277344 L 51.472656 65.277344 C 52.371094 65.277344 53.074219 65.996094 53.074219 66.914062 L 53.074219 67.800781 C 53.074219 68.683594 52.355469 69.402344 51.472656 69.402344 Z M 44.539062 66.707031 C 44.472656 66.707031 44.371094 66.789062 44.371094 66.914062 L 44.371094 67.800781 C 44.371094 67.890625 44.46875 67.976562 44.539062 67.976562 L 51.472656 67.976562 C 51.578125 67.976562 51.640625 67.886719 51.640625 67.800781 L 51.640625 66.914062 C 51.640625 66.8125 51.589844 66.707031 51.472656 66.707031 Z M 44.539062 66.707031 " fill-opacity="1" fill-rule="nonzero"/><path fill="#201e1b" d="M 57.621094 69.753906 C 56.128906 69.753906 54.917969 68.546875 54.917969 67.070312 C 54.917969 65.574219 56.128906 64.359375 57.621094 64.359375 C 59.09375 64.359375 60.292969 65.574219 60.292969 67.070312 C 60.292969 68.546875 59.09375 69.753906 57.621094 69.753906 Z M 57.621094 65.789062 C 56.910156 65.789062 56.351562 66.351562 56.351562 67.070312 C 56.351562 67.761719 56.921875 68.324219 57.621094 68.324219 C 58.292969 68.324219 58.859375 67.75 58.859375 67.070312 C 58.859375 66.363281 58.304688 65.789062 57.621094 65.789062 Z M 38.421875 69.753906 C 36.929688 69.753906 35.71875 68.546875 35.71875 67.070312 C 35.71875 65.574219 36.929688 64.359375 38.421875 64.359375 C 39.894531 64.359375 41.09375 65.574219 41.09375 67.070312 C 41.09375 68.546875 39.894531 69.753906 38.421875 69.753906 Z M 38.421875 65.789062 C 37.710938 65.789062 37.152344 66.351562 37.152344 67.070312 C 37.152344 67.761719 37.722656 68.324219 38.421875 68.324219 C 39.089844 68.324219 39.660156 67.75 39.660156 67.070312 C 39.660156 66.363281 39.105469 65.789062 38.421875 65.789062 Z M 38.421875 65.789062 " fill-opacity="1" fill-rule="nonzero"/><path fill="#201e1b" d="M 71.496094 77.683594 L 24.515625 77.683594 C 24.121094 77.683594 23.800781 77.363281 23.800781 76.96875 L 23.800781 74.9375 C 23.800781 74.542969 24.121094 74.222656 24.515625 74.222656 L 71.496094 74.222656 C 71.890625 74.222656 72.210938 74.542969 72.210938 74.9375 L 72.210938 76.96875 C 72.210938 77.363281 71.890625 77.683594 71.496094 77.683594 Z M 25.234375 76.253906 L 70.777344 76.253906 L 70.777344 75.652344 L 25.234375 75.652344 Z M 25.234375 76.253906 " fill-opacity="1" fill-rule="nonzero"/><g clip-path="url(#6dda071a25)"><path fill="#201e1b" d="M 76.160156 82.378906 L 71.496094 82.378906 C 71.101562 82.378906 70.777344 82.058594 70.777344 81.664062 L 70.777344 16.4375 C 70.777344 14.753906 72.148438 13.378906 73.828125 13.378906 C 75.507812 13.378906 76.878906 14.753906 76.878906 16.4375 L 76.878906 81.664062 C 76.878906 82.058594 76.554688 82.378906 76.160156 82.378906 Z M 72.210938 80.949219 L 75.441406 80.949219 L 75.441406 16.4375 C 75.441406 15.539062 74.71875 14.808594 73.828125 14.808594 C 72.9375 14.808594 72.210938 15.539062 72.210938 16.4375 Z M 72.210938 80.949219 " fill-opacity="1" fill-rule="nonzero"/></g><g clip-path="url(#dbb93bed50)"><path fill="#201e1b" d="M 24.515625 82.378906 L 19.851562 82.378906 C 19.457031 82.378906 19.132812 82.058594 19.132812 81.664062 L 19.132812 16.4375 C 19.132812 14.753906 20.503906 13.378906 22.183594 13.378906 C 23.863281 13.378906 25.234375 14.753906 25.234375 16.4375 L 25.234375 81.664062 C 25.234375 82.058594 24.910156 82.378906 24.515625 82.378906 Z M 20.566406 80.949219 L 23.800781 80.949219 L 23.800781 16.4375 C 23.800781 15.539062 23.074219 14.808594 22.183594 14.808594 C 21.308594 14.808594 20.566406 15.554688 20.566406 16.4375 Z M 20.566406 80.949219 " fill-opacity="1" fill-rule="nonzero"/></g><path fill="#201e1b" d="M 71.496094 21.214844 L 24.515625 21.214844 C 24.121094 21.214844 23.800781 20.894531 23.800781 20.5 L 23.800781 18.4375 C 23.800781 18.042969 24.121094 17.722656 24.515625 17.722656 L 71.496094 17.722656 C 71.890625 17.722656 72.210938 18.042969 72.210938 18.4375 L 72.210938 20.5 C 72.210938 20.894531 71.890625 21.214844 71.496094 21.214844 Z M 25.234375 19.785156 L 70.777344 19.785156 L 70.777344 19.152344 L 25.234375 19.152344 Z M 25.234375 19.785156 " fill-opacity="1" fill-rule="nonzero"/></svg>