<svg xmlns="http://www.w3.org/2000/svg" xmlns:xlink="http://www.w3.org/1999/xlink" width="128" zoomAndPan="magnify" viewBox="0 0 96 95.999999" height="128" preserveAspectRatio="xMidYMid meet" version="1.0"><defs><clipPath id="b26a7384dc"><path d="M 15 17.367188 L 81.886719 17.367188 L 81.886719 78.867188 L 15 78.867188 Z M 15 17.367188 " clip-rule="nonzero"/></clipPath></defs><path fill="#000000" d="M 48 96 C 21.539062 96 0 74.460938 0 48 C 0 21.539062 21.539062 0 48 0 C 74.460938 0 96 21.539062 96 48 C 96 74.460938 74.460938 96 48 96 Z M 48 0.710938 C 21.917969 0.710938 0.710938 21.917969 0.710938 48 C 0.710938 74.082031 21.917969 95.289062 48 95.289062 C 74.082031 95.289062 95.289062 74.082031 95.289062 48 C 95.289062 21.917969 74.082031 0.710938 48 0.710938 Z M 48 0.710938 " fill-opacity="1" fill-rule="nonzero"/><g clip-path="url(#b26a7384dc)"><path fill="#000000" d="M 81.183594 74.671875 L 79.652344 74.671875 C 80.367188 73.28125 79.472656 71.519531 77.941406 71.21875 C 76.476562 70.921875 74.722656 70.457031 72.832031 69.753906 L 72.832031 65.382812 C 77.164062 64.917969 80.574219 60.222656 80.574219 54.511719 C 80.574219 51.0625 77.914062 46.574219 75.683594 43.410156 C 74.152344 41.089844 70.105469 41.089844 68.574219 43.410156 C 66.34375 46.574219 63.683594 51.0625 63.683594 54.511719 C 63.683594 60.234375 67.097656 64.929688 71.429688 65.382812 L 71.429688 69.210938 C 63.710938 66.070312 57.445312 59.988281 53.578125 52.320312 L 53.578125 46.355469 L 54.394531 46.355469 C 54.785156 46.355469 55.097656 46.042969 55.097656 45.65625 L 55.097656 43.4375 C 55.097656 43.046875 54.785156 42.734375 54.394531 42.734375 L 44.132812 42.734375 L 44.132812 37.652344 C 46.960938 38.726562 49.257812 35.070312 46.988281 32.996094 C 46.988281 32.996094 33.691406 20.957031 33.691406 20.957031 C 32.691406 20.035156 30.976562 20.011719 29.953125 20.957031 L 16.644531 32.996094 C 14.386719 35.019531 16.65625 38.753906 19.496094 37.664062 L 19.496094 52.125 L 18.171875 52.125 C 16.824219 52.125 15.722656 53.230469 15.722656 54.578125 C 15.722656 55.925781 16.824219 57.03125 18.171875 57.03125 L 19.496094 57.03125 L 19.496094 67.746094 C 16.175781 67.976562 14.503906 72.246094 16.785156 74.671875 L 16.421875 74.671875 C 16.03125 74.671875 15.722656 74.980469 15.722656 75.371094 L 15.722656 78.148438 C 15.722656 78.535156 16.03125 78.847656 16.421875 78.847656 L 81.183594 78.847656 C 81.574219 78.847656 81.886719 78.535156 81.886719 78.148438 L 81.886719 75.371094 C 81.886719 74.980469 81.574219 74.671875 81.183594 74.671875 Z M 65.085938 54.5 C 65.085938 51.425781 67.601562 47.199219 69.714844 44.203125 C 70.730469 42.65625 73.53125 42.65625 74.542969 44.203125 C 76.65625 47.199219 79.175781 51.414062 79.175781 54.5 C 79.175781 59.429688 76.386719 63.503906 72.832031 63.984375 L 72.832031 58.417969 C 72.855469 58.390625 72.882812 58.367188 72.90625 58.328125 L 76.175781 53.308594 C 76.386719 52.984375 76.292969 52.554688 75.96875 52.335938 C 75.644531 52.125 75.21875 52.21875 74.996094 52.542969 L 72.832031 55.875 L 72.832031 51.660156 C 72.832031 51.269531 72.519531 50.960938 72.128906 50.960938 C 71.742188 50.960938 71.429688 51.269531 71.429688 51.660156 L 71.429688 60.390625 L 69.199219 57.511719 C 68.640625 56.796875 67.539062 57.640625 68.09375 58.367188 C 68.09375 58.367188 71.429688 62.660156 71.429688 62.660156 L 71.429688 63.957031 C 67.875 63.503906 65.085938 59.441406 65.085938 54.5 Z M 53.707031 44.148438 L 53.707031 44.96875 L 44.132812 44.96875 L 44.132812 44.148438 Z M 52.175781 46.355469 L 52.175781 52.125 L 50.28125 52.125 L 50.28125 46.355469 Z M 48.882812 46.355469 L 48.882812 52.125 L 46.988281 52.125 L 46.988281 46.355469 Z M 45.585938 46.355469 L 45.585938 52.125 L 44.132812 52.125 L 44.132812 46.355469 Z M 19.445312 36.082031 C 18.886719 36.574219 17.980469 36.523438 17.484375 35.992188 C 16.980469 35.445312 17.019531 34.523438 17.578125 34.03125 L 30.886719 21.980469 C 31.523438 21.449219 32.199219 21.542969 32.742188 21.980469 C 32.742188 21.980469 46.054688 34.019531 46.054688 34.019531 C 46.625 34.523438 46.664062 35.40625 46.144531 35.976562 C 45.625 36.535156 44.757812 36.585938 44.183594 36.070312 L 32.277344 25.289062 C 32.003906 25.042969 31.601562 25.042969 31.339844 25.289062 Z M 31.808594 39.011719 C 28.488281 39.011719 25.777344 41.722656 25.777344 45.042969 L 25.777344 52.125 L 20.886719 52.125 L 20.886719 36.652344 L 31.808594 26.769531 L 42.730469 36.652344 L 42.730469 52.125 L 37.839844 52.125 L 37.839844 45.03125 C 37.839844 41.710938 35.144531 39.011719 31.808594 39.011719 Z M 36.441406 45.03125 L 36.441406 52.125 L 27.175781 52.125 L 27.175781 45.03125 C 27.175781 42.476562 29.253906 40.402344 31.808594 40.402344 C 34.363281 40.402344 36.441406 42.488281 36.441406 45.03125 Z M 18.171875 55.628906 C 17.589844 55.628906 17.121094 55.164062 17.121094 54.578125 C 17.121094 53.996094 17.589844 53.527344 18.171875 53.527344 L 52.683594 53.527344 C 57.597656 63.773438 68.289062 70.910156 77.667969 72.582031 C 78.238281 72.699219 78.601562 73.257812 78.488281 73.816406 C 78.371094 74.371094 77.839844 74.75 77.253906 74.632812 C 66.484375 72.480469 56.9375 65.566406 51.632812 55.980469 C 51.503906 55.757812 51.28125 55.617188 51.023438 55.617188 C 44.03125 55.617188 30.511719 55.617188 23.675781 55.617188 C 23.648438 55.617188 20.210938 55.617188 20.199219 55.617188 C 20.171875 55.628906 18.171875 55.628906 18.171875 55.628906 Z M 72.039062 74.671875 L 44.132812 74.671875 L 44.132812 57.03125 L 50.605469 57.03125 C 55.304688 65.28125 63.035156 71.621094 72.039062 74.671875 Z M 42.730469 57.03125 L 42.730469 74.671875 L 40.667969 74.671875 L 40.667969 57.03125 Z M 35.195312 69.535156 C 35.195312 65.550781 35.195312 61.011719 35.195312 57.03125 L 39.28125 57.03125 L 39.28125 74.671875 L 37.167969 74.671875 C 38.554688 72.855469 37.414062 69.949219 35.195312 69.535156 Z M 29.824219 66.941406 L 29.824219 65.421875 L 33.792969 65.421875 L 33.792969 66.941406 Z M 33.792969 68.339844 L 33.792969 69.519531 C 33.25 69.636719 32.742188 69.871094 32.328125 70.234375 C 31.875 69.753906 31.226562 69.457031 30.539062 69.445312 C 30.433594 69.027344 30.238281 68.652344 29.980469 68.339844 Z M 29.824219 64.019531 L 29.824219 62.503906 L 33.792969 62.503906 L 33.792969 64.019531 Z M 29.824219 61.089844 L 29.824219 59.574219 L 33.792969 59.574219 L 33.792969 61.089844 Z M 29.824219 58.171875 L 29.824219 57.03125 L 33.792969 57.03125 L 33.792969 58.171875 Z M 28.4375 57.03125 C 28.4375 60.234375 28.4375 64.125 28.4375 67.328125 C 27.890625 67.171875 27.28125 67.199219 26.75 67.382812 C 26.269531 66.472656 25.375 65.8125 24.347656 65.644531 L 24.347656 57.03125 Z M 22.949219 57.03125 L 22.949219 65.71875 C 22.078125 65.980469 21.3125 66.5625 20.886719 67.382812 L 20.886719 57.03125 Z M 19.769531 69.132812 C 20.507812 69.105469 21.714844 69.898438 21.921875 68.742188 C 22.128906 66.589844 25.207031 66.371094 25.683594 68.507812 C 25.777344 69.003906 26.398438 69.234375 26.789062 68.925781 C 27.058594 68.730469 27.371094 68.613281 27.695312 68.613281 C 28.539062 68.613281 29.226562 69.300781 29.226562 70.078125 C 29.164062 70.363281 29.265625 70.675781 29.511719 70.832031 C 29.8125 71.089844 30.214844 70.855469 30.523438 70.84375 C 30.992188 70.84375 31.417969 71.167969 31.550781 71.621094 C 31.628906 71.894531 31.859375 72.089844 32.132812 72.117188 C 32.417969 72.140625 32.679688 72.023438 32.820312 71.777344 C 33.753906 70.117188 36.402344 70.84375 36.363281 72.75 C 36.363281 73.800781 35.519531 74.644531 34.480469 74.65625 L 19.859375 74.65625 C 18.34375 74.644531 17.121094 73.398438 17.121094 71.882812 C 17.109375 70.457031 18.34375 69.195312 19.769531 69.132812 Z M 80.484375 77.445312 L 17.121094 77.445312 L 17.121094 76.070312 C 28.929688 76.085938 68.082031 76.070312 80.484375 76.070312 Z M 66.449219 25.550781 C 66.277344 20.203125 58.519531 20.203125 58.351562 25.550781 C 58.519531 30.90625 66.277344 30.894531 66.449219 25.550781 Z M 62.398438 22.902344 C 65.890625 22.992188 65.890625 28.105469 62.398438 28.195312 C 58.898438 28.105469 58.910156 22.992188 62.398438 22.902344 Z M 58.519531 29.425781 C 58.792969 29.699219 58.792969 30.140625 58.519531 30.414062 C 58.25 30.648438 57.703125 31.410156 57.289062 31.359375 C 56.691406 31.386719 56.355469 30.582031 56.796875 30.167969 C 57.238281 29.765625 57.832031 28.792969 58.519531 29.425781 Z M 66.277344 20.683594 C 66.277344 20.683594 67.019531 19.945312 67.019531 19.945312 C 67.667969 19.296875 68.652344 20.28125 68.003906 20.929688 L 67.265625 21.671875 C 66.617188 22.320312 65.628906 21.332031 66.277344 20.683594 Z M 55.160156 24.847656 C 55.160156 24.847656 56.210938 24.847656 56.210938 24.847656 C 57.132812 24.847656 57.121094 26.25 56.210938 26.25 C 56.210938 26.25 55.160156 26.25 55.160156 26.25 C 54.238281 26.25 54.238281 24.863281 55.160156 24.847656 Z M 68.589844 24.847656 C 68.589844 24.847656 69.640625 24.847656 69.640625 24.847656 C 70.558594 24.847656 70.546875 26.25 69.640625 26.25 C 69.640625 26.25 68.589844 26.25 68.589844 26.25 C 67.667969 26.25 67.667969 24.863281 68.589844 24.847656 Z M 56.78125 20.929688 C 56.132812 20.28125 57.121094 19.296875 57.769531 19.945312 C 57.769531 19.945312 58.507812 20.683594 58.507812 20.683594 C 59.15625 21.332031 58.171875 22.320312 57.523438 21.671875 C 57.523438 21.671875 56.78125 20.929688 56.78125 20.929688 Z M 68.003906 30.179688 C 68.652344 30.828125 67.667969 31.8125 67.019531 31.164062 C 67.019531 31.164062 66.277344 30.425781 66.277344 30.425781 C 65.628906 29.777344 66.617188 28.792969 67.265625 29.441406 C 67.265625 29.425781 68.003906 30.179688 68.003906 30.179688 Z M 61.699219 19.363281 C 61.699219 19.363281 61.699219 18.3125 61.699219 18.3125 C 61.699219 17.390625 63.101562 17.402344 63.101562 18.3125 L 63.101562 19.363281 C 63.085938 20.28125 61.699219 20.28125 61.699219 19.363281 Z M 63.101562 31.738281 C 63.101562 31.738281 63.101562 32.785156 63.101562 32.785156 C 63.101562 33.707031 61.699219 33.695312 61.699219 32.785156 L 61.699219 31.738281 C 61.699219 30.828125 63.085938 30.828125 63.101562 31.738281 Z M 63.101562 31.738281 " fill-opacity="1" fill-rule="nonzero"/></g></svg>